# Blender 4.0.2
# www.blender.org
mtllib reverser_middle.mtl
o Cube
v -0.800000 3.500000 -2.000000
v -0.800000 -0.500000 -2.000000
v 0.800000 3.500000 -2.000000
v 0.038429 -0.500000 -0.390181
v 0.800000 -0.500000 -2.000000
v 0.038429 3.500000 -0.390181
v 0.152241 -0.500000 -0.765367
v -0.800000 3.500000 2.000000
v 0.152241 3.500000 -0.765367
v -0.800000 -0.500000 2.000000
v 0.337061 -0.500000 -1.111140
v 0.800000 3.500000 2.000000
v 0.337061 3.500000 -1.111140
v 0.800000 -0.500000 2.000000
v 0.585786 -0.500000 -1.414214
v -0.585787 -0.500000 -1.414214
v 0.585786 3.500000 -1.414214
v -0.585787 3.500000 -1.414214
v -0.337061 -0.500000 -1.111140
v -0.337061 3.500000 -1.111140
v -0.152241 -0.500000 -0.765367
v -0.152241 3.500000 -0.765367
v -0.038430 -0.500000 -0.390181
v -0.038430 3.500000 -0.390181
v 0.000000 -0.500000 0.000000
v 0.000000 3.500000 0.000000
v -0.038429 -0.500000 0.390181
v -0.038429 3.500000 0.390181
v -0.152241 -0.500000 0.765367
v -0.152241 3.500000 0.765367
v -0.337061 -0.500000 1.111140
v -0.337061 3.500000 1.111140
v -0.585786 -0.500000 1.414214
v -0.585786 3.500000 1.414214
v -0.800000 3.500000 1.590014
v -0.800000 3.500000 -1.590014
v -0.800000 -0.500000 1.590014
v -0.800000 -0.500000 -1.590014
v 0.585787 -0.500000 1.414214
v 0.585787 3.500000 1.414214
v 0.337061 -0.500000 1.111140
v 0.337061 3.500000 1.111140
v 0.152241 -0.500000 0.765367
v 0.152241 3.500000 0.765367
v 0.038430 -0.500000 0.390181
v 0.038430 3.500000 0.390181
v 0.800000 3.500000 1.590014
v 0.800000 3.500000 -1.590014
v 0.800000 -0.500000 1.590014
v 0.800000 -0.500000 -1.590014
vn -0.0000 1.0000 -0.0000
vn 1.0000 -0.0000 -0.0000
vn -0.0000 -0.0000 1.0000
vn -0.0000 -1.0000 -0.0000
vn -0.0000 -0.0000 -1.0000
vn -1.0000 -0.0000 -0.0000
vn -0.6344 -0.0000 0.7730
vn -0.7730 -0.0000 0.6344
vn -0.8819 -0.0000 0.4714
vn -0.9569 -0.0000 0.2903
vn -0.9952 -0.0000 0.0980
vn -0.9952 -0.0000 -0.0980
vn -0.9569 -0.0000 -0.2903
vn -0.8819 -0.0000 -0.4714
vn -0.7730 -0.0000 -0.6344
vn -0.6344 -0.0000 -0.7730
vn 0.9952 -0.0000 0.0980
vn 0.9569 -0.0000 0.2903
vn 0.8819 -0.0000 0.4714
vn 0.7730 -0.0000 0.6344
vn 0.6344 -0.0000 0.7730
vn 0.6344 -0.0000 -0.7730
vn 0.7730 -0.0000 -0.6344
vn 0.8819 -0.0000 -0.4714
vn 0.9569 -0.0000 -0.2903
vn 0.9952 -0.0000 -0.0980
vt 0.650624 0.750000
vt 0.625000 0.750000
vt 0.625000 0.500000
vt 0.650624 0.500000
vt 0.661612 0.533471
vt 0.680554 0.572334
vt 0.702165 0.601212
vt 0.725614 0.618995
vt 0.750000 0.625000
vt 0.725614 0.631005
vt 0.702165 0.648788
vt 0.680554 0.677666
vt 0.661612 0.716529
vt 0.774386 0.618995
vt 0.797836 0.601212
vt 0.819446 0.572334
vt 0.838388 0.533471
vt 0.849376 0.500000
vt 0.875000 0.500000
vt 0.875000 0.750000
vt 0.849376 0.750000
vt 0.838388 0.716529
vt 0.819446 0.677666
vt 0.797836 0.648788
vt 0.774386 0.631005
vt 0.625000 1.000000
vt 0.375000 1.000000
vt 0.375000 0.974376
vt 0.625000 0.974376
vt 0.375000 0.750000
vt 0.625000 0.775624
vt 0.375000 0.775624
vt 0.375000 0.000000
vt 0.625000 0.000000
vt 0.625000 0.250000
vt 0.375000 0.250000
vt 0.125000 0.750000
vt 0.125000 0.500000
vt 0.150624 0.500000
vt 0.161612 0.533471
vt 0.180554 0.572334
vt 0.202165 0.601212
vt 0.225614 0.618995
vt 0.250000 0.625000
vt 0.225614 0.631005
vt 0.202165 0.648788
vt 0.180554 0.677666
vt 0.161612 0.716529
vt 0.150624 0.750000
vt 0.274386 0.631005
vt 0.274386 0.618995
vt 0.297835 0.601212
vt 0.319446 0.572334
vt 0.338388 0.533471
vt 0.349376 0.500000
vt 0.375000 0.500000
vt 0.349376 0.750000
vt 0.338388 0.716529
vt 0.319446 0.677666
vt 0.297835 0.648788
vt 0.375000 0.474376
vt 0.625000 0.474376
vt 0.625000 0.275624
vt 0.375000 0.275624
vt 0.647088 0.500000
vt 0.647088 1.000000
vt 0.593750 0.500000
vt 0.593750 1.000000
vt 0.562500 1.000000
vt 0.562500 0.500000
vt 0.531250 1.000000
vt 0.531250 0.500000
vt 0.500000 1.000000
vt 0.500000 0.500000
vt 0.468750 1.000000
vt 0.468750 0.500000
vt 0.437500 1.000000
vt 0.437500 0.500000
vt 0.406250 1.000000
vt 0.406250 0.500000
vt 0.352912 1.000000
vt 0.352912 0.500000
vt 1.000000 1.000000
vt 1.000000 0.500000
vt 0.968750 0.500000
vt 0.968750 1.000000
vt 0.937500 0.500000
vt 0.937500 1.000000
vt 0.906250 0.500000
vt 0.906250 1.000000
vt 0.875000 1.000000
vt 0.852912 1.000000
vt 0.852912 0.500000
vt 0.147088 1.000000
vt 0.147088 0.500000
vt 0.125000 1.000000
vt 0.093750 0.500000
vt 0.093750 1.000000
vt 0.062500 0.500000
vt 0.062500 1.000000
vt 0.031250 0.500000
vt 0.031250 1.000000
vt 0.000000 0.500000
vt 0.000000 1.000000
s 0
usemtl Material
f 48/1/1 3/2/1 1/3/1 36/4/1 18/5/1 20/6/1 22/7/1 24/8/1 26/9/1 6/10/1 9/11/1 13/12/1 17/13/1
f 28/14/1 30/15/1 32/16/1 34/17/1 35/18/1 8/19/1 12/20/1 47/21/1 40/22/1 42/23/1 44/24/1 46/25/1 26/9/1
f 12/26/2 14/27/2 49/28/2 47/29/2
f 5/30/2 3/2/2 48/31/2 50/32/2
f 14/33/3 12/34/3 8/35/3 10/36/3
f 14/37/4 10/38/4 37/39/4 33/40/4 31/41/4 29/42/4 27/43/4 25/44/4 45/45/4 43/46/4 41/47/4 39/48/4 49/49/4
f 4/50/4 25/44/4 23/51/4 21/52/4 19/53/4 16/54/4 38/55/4 2/56/4 5/30/4 50/57/4 15/58/4 11/59/4 7/60/4
f 2/56/5 1/3/5 3/2/5 5/30/5
f 1/3/6 2/56/6 38/61/6 36/62/6
f 10/36/6 8/35/6 35/63/6 37/64/6
f 26/83/17 25/84/17 4/85/17 6/86/17
f 7/87/18 9/88/18 6/86/18 4/85/18
f 9/88/19 7/87/19 11/89/19 13/90/19
f 15/19/20 17/91/20 13/90/20 11/89/20
f 48/92/21 17/91/21 15/19/21 50/93/21
f 47/94/22 49/95/22 39/38/22 40/96/22
f 40/96/23 39/38/23 41/97/23 42/98/23
f 42/98/24 41/97/24 43/99/24 44/100/24
f 44/100/25 43/99/25 45/101/25 46/102/25
f 25/103/26 26/104/26 46/102/26 45/101/26
usemtl 
f 38/65/7 16/3/7 18/26/7 36/66/7
f 16/3/8 19/67/8 20/68/8 18/26/8
f 22/69/9 20/68/9 19/67/9 21/70/9
f 24/71/10 22/69/10 21/70/10 23/72/10
f 26/73/11 24/71/11 23/72/11 25/74/11
f 28/75/12 26/73/12 25/74/12 27/76/12
f 30/77/13 28/75/13 27/76/13 29/78/13
f 32/79/14 30/77/14 29/78/14 31/80/14
f 34/27/15 32/79/15 31/80/15 33/56/15
f 35/81/16 34/27/16 33/56/16 37/82/16
